<?xml version="1.0" encoding="UTF-8" standalone="no"?>
<!-- Created with Inkscape (http://www.inkscape.org/) -->

<svg
   xmlns:dc="http://purl.org/dc/elements/1.1/"
   xmlns:cc="http://creativecommons.org/ns#"
   xmlns:rdf="http://www.w3.org/1999/02/22-rdf-syntax-ns#"
   xmlns:svg="http://www.w3.org/2000/svg"
   xmlns="http://www.w3.org/2000/svg"
   xmlns:sodipodi="http://sodipodi.sourceforge.net/DTD/sodipodi-0.dtd"
   xmlns:inkscape="http://www.inkscape.org/namespaces/inkscape"
   width="458.27011mm"
   height="157.54749mm"
   viewBox="0 0 458.27011 157.54749"
   version="1.1"
   id="svg8"
   inkscape:version="0.92.4 (5da689c313, 2019-01-14)"
   sodipodi:docname="bf_optical_module_1.svg">
  <defs
     id="defs2" />
  <sodipodi:namedview
     id="base"
     pagecolor="#ffffff"
     bordercolor="#666666"
     borderopacity="1.0"
     inkscape:pageopacity="0.0"
     inkscape:pageshadow="2"
     inkscape:zoom="0.49497476"
     inkscape:cx="993.1444"
     inkscape:cy="-18.982647"
     inkscape:document-units="mm"
     inkscape:current-layer="layer1"
     showgrid="false"
     inkscape:window-width="1600"
     inkscape:window-height="837"
     inkscape:window-x="1912"
     inkscape:window-y="80"
     inkscape:window-maximized="1"
     fit-margin-top="0"
     fit-margin-left="0"
     fit-margin-right="0"
     fit-margin-bottom="0"
     inkscape:snap-midpoints="false" />
  <metadata
     id="metadata5">
    <rdf:RDF>
      <cc:Work
         rdf:about="">
        <dc:format>image/svg+xml</dc:format>
        <dc:type
           rdf:resource="http://purl.org/dc/dcmitype/StillImage" />
        <dc:title></dc:title>
      </cc:Work>
    </rdf:RDF>
  </metadata>
  <g
     inkscape:label="Layer 1"
     inkscape:groupmode="layer"
     id="layer1"
     transform="translate(147.40626,237.0461)">
    <g
       id="g2188"
       transform="translate(-11.393446,-17.840348)">
      <g
         transform="translate(81.249418,-53.628034)"
         id="g2104">
        <path
           style="fill:none;fill-opacity:1;stroke:#000000;stroke-width:0.5;stroke-linejoin:bevel;stroke-miterlimit:4;stroke-dasharray:none;stroke-dashoffset:0;stroke-opacity:0.99607843"
           d="m -196.37979,69.336948 v 2.999793 h -17.74982 v 17.75034 h -3.00033 v 35.500179 h 3.00033 v 17.74981 h 17.74982 v 2.99982 h 35.50016 v -2.99982 h 17.74982 v -17.74981 h 3.00033 V 90.087081 h -3.00033 v -17.75034 h -17.74982 v -2.999793 z m 2.7497,20.450413 c 1.68971,0 3.05046,1.360249 3.05046,3.049958 h 23.89984 c 0,-1.689709 1.36024,-3.049958 3.04994,-3.049958 1.6897,0 3.05046,1.360249 3.05046,3.049958 0,1.689683 -1.36076,3.049933 -3.05046,3.049933 v 23.899838 5e-4 c 1.6897,0 3.05046,1.36025 3.05046,3.04996 0,1.68971 -1.36076,3.04993 -3.05046,3.04993 -1.6897,0 -3.04994,-1.36022 -3.04994,-3.04993 v -5.3e-4 h -23.89984 v 5.3e-4 c 0,1.68971 -1.36075,3.04993 -3.05046,3.04993 -1.6897,0 -3.04994,-1.36022 -3.04994,-3.04993 0,-1.68971 1.36024,-3.04996 3.04994,-3.04996 h 5.2e-4 v -5e-4 -23.899838 h -5.2e-4 c -1.6897,0 -3.04994,-1.36025 -3.04994,-3.049933 0,-1.689709 1.36024,-3.049958 3.04994,-3.049958 z"
           id="path1087"
           inkscape:connector-curvature="0" />
        <text
           xml:space="preserve"
           style="font-style:normal;font-variant:normal;font-weight:bold;font-stretch:normal;font-size:3.52777767px;line-height:1.25;font-family:Arial;-inkscape-font-specification:'Arial Bold';letter-spacing:0px;word-spacing:0px;fill:#ff0000;fill-opacity:1;stroke:none;stroke-width:0.26458332"
           x="-143.06461"
           y="109.08318"
           id="text1440-7-5-3"><tspan
             sodipodi:role="line"
             id="tspan1438-7-1-1"
             x="-143.06461"
             y="109.08318"
             style="font-style:normal;font-variant:normal;font-weight:bold;font-stretch:normal;font-size:3.52777767px;font-family:Arial;-inkscape-font-specification:'Arial Bold';fill:#ff0000;fill-opacity:1;stroke-width:0.26458332">3</tspan></text>
        <text
           xml:space="preserve"
           style="font-style:normal;font-variant:normal;font-weight:bold;font-stretch:normal;font-size:3.52777767px;line-height:1.25;font-family:Arial;-inkscape-font-specification:'Arial Bold';letter-spacing:0px;word-spacing:0px;fill:#ff0000;fill-opacity:1;stroke:none;stroke-width:0.26458332"
           x="-179.60123"
           y="72.498405"
           id="text1440-7-5-9"><tspan
             sodipodi:role="line"
             id="tspan1438-7-1-48"
             x="-179.60123"
             y="72.498405"
             style="font-style:normal;font-variant:normal;font-weight:bold;font-stretch:normal;font-size:3.52777767px;font-family:Arial;-inkscape-font-specification:'Arial Bold';fill:#ff0000;fill-opacity:1;stroke-width:0.26458332">3</tspan></text>
        <text
           xml:space="preserve"
           style="font-style:normal;font-variant:normal;font-weight:bold;font-stretch:normal;font-size:3.52777767px;line-height:1.25;font-family:Arial;-inkscape-font-specification:'Arial Bold';letter-spacing:0px;word-spacing:0px;fill:#ff0000;fill-opacity:1;stroke:none;stroke-width:0.26458332"
           x="-215.90013"
           y="109.08318"
           id="text1440-7-5-8"><tspan
             sodipodi:role="line"
             id="tspan1438-7-1-7"
             x="-215.90013"
             y="109.08318"
             style="font-style:normal;font-variant:normal;font-weight:bold;font-stretch:normal;font-size:3.52777767px;font-family:Arial;-inkscape-font-specification:'Arial Bold';fill:#ff0000;fill-opacity:1;stroke-width:0.26458332">3</tspan></text>
        <text
           xml:space="preserve"
           style="font-style:normal;font-variant:normal;font-weight:bold;font-stretch:normal;font-size:3.52777767px;line-height:1.25;font-family:Arial;-inkscape-font-specification:'Arial Bold';letter-spacing:0px;word-spacing:0px;fill:#ff0000;fill-opacity:1;stroke:none;stroke-width:0.26458332"
           x="-179.60123"
           y="144.91232"
           id="text1440-7-5-36"><tspan
             sodipodi:role="line"
             id="tspan1438-7-1-3"
             x="-179.60123"
             y="144.91232"
             style="font-style:normal;font-variant:normal;font-weight:bold;font-stretch:normal;font-size:3.52777767px;font-family:Arial;-inkscape-font-specification:'Arial Bold';fill:#ff0000;fill-opacity:1;stroke-width:0.26458332">3</tspan></text>
      </g>
      <g
         transform="translate(48.108511,10.42352)"
         id="g2093">
        <path
           style="fill:none;fill-opacity:1;stroke:#000000;stroke-width:0.5;stroke-linejoin:bevel;stroke-miterlimit:4;stroke-dasharray:none;stroke-dashoffset:0;stroke-opacity:0.99607843"
           d="m -163.23837,-71.714076 v 2.999816 h -17.74982 v 17.750338 h -3.00034 v 35.500169 h 3.00034 V 2.2860581 h 17.74982 v 2.999819 h 35.50016 v -2.999819 h 17.74982 V -15.463753 h 3.00033 v -35.500169 h -3.00033 V -68.71426 h -17.74982 v -2.999816 z m 17.75034,20.999751 c 9.695,0 17.4997,7.805211 17.4997,17.500232 0,9.694995 -7.8047,17.500203 -17.4997,17.500203 -9.695,0 -17.50023,-7.805208 -17.50023,-17.500203 0,-9.695021 7.80523,-17.500232 17.50023,-17.500232 z m -15.00064,1.075386 c 0.78945,0 1.42524,0.63527 1.42524,1.42472 0,0.789448 -0.63579,1.425234 -1.42524,1.425234 -0.78945,2e-6 -1.42472,-0.635786 -1.42472,-1.425234 0,-0.78945 0.63527,-1.42472 1.42472,-1.42472 z m 30.00075,0 c 0.78945,0 1.42472,0.63527 1.42472,1.42472 0,0.789448 -0.63527,1.425234 -1.42472,1.425234 -0.78945,2e-6 -1.42523,-0.635786 -1.42523,-1.425234 0,-0.78945 0.63578,-1.42472 1.42523,-1.42472 z m -30.00075,30.000246 c 0.78945,0 1.42524,0.635265 1.42524,1.424702 0,0.789464 -0.63579,1.425231 -1.42524,1.425231 -0.78945,0 -1.42472,-0.635767 -1.42472,-1.425231 0,-0.789437 0.63527,-1.424702 1.42472,-1.424702 z m 30.00075,0 c 0.78945,0 1.42472,0.635265 1.42472,1.424702 0,0.789464 -0.63527,1.425231 -1.42472,1.425231 -0.78945,0 -1.42523,-0.635767 -1.42523,-1.425231 0,-0.789437 0.63578,-1.424702 1.42523,-1.424702 z"
           id="rect1006"
           inkscape:connector-curvature="0" />
        <text
           xml:space="preserve"
           style="font-style:normal;font-variant:normal;font-weight:bold;font-stretch:normal;font-size:3.52777767px;line-height:1.25;font-family:Arial;-inkscape-font-specification:'Arial Bold';letter-spacing:0px;word-spacing:0px;fill:#ff0000;fill-opacity:1;stroke:none;stroke-width:0.26458332"
           x="-110.3156"
           y="-31.946304"
           id="text1440-7-5-4"><tspan
             sodipodi:role="line"
             id="tspan1438-7-1-2"
             x="-110.3156"
             y="-31.946304"
             style="font-style:normal;font-variant:normal;font-weight:bold;font-stretch:normal;font-size:3.52777767px;font-family:Arial;-inkscape-font-specification:'Arial Bold';fill:#ff0000;fill-opacity:1;stroke-width:0.26458332">4</tspan></text>
        <text
           xml:space="preserve"
           style="font-style:normal;font-variant:normal;font-weight:bold;font-stretch:normal;font-size:3.52777767px;line-height:1.25;font-family:Arial;-inkscape-font-specification:'Arial Bold';letter-spacing:0px;word-spacing:0px;fill:#ff0000;fill-opacity:1;stroke:none;stroke-width:0.26458332"
           x="-146.46153"
           y="3.7522142"
           id="text1440-7-5-4-9"><tspan
             sodipodi:role="line"
             id="tspan1438-7-1-2-2"
             x="-146.46153"
             y="3.7522142"
             style="font-style:normal;font-variant:normal;font-weight:bold;font-stretch:normal;font-size:3.52777767px;font-family:Arial;-inkscape-font-specification:'Arial Bold';fill:#ff0000;fill-opacity:1;stroke-width:0.26458332">4</tspan></text>
        <text
           xml:space="preserve"
           style="font-style:normal;font-variant:normal;font-weight:bold;font-stretch:normal;font-size:3.52777767px;line-height:1.25;font-family:Arial;-inkscape-font-specification:'Arial Bold';letter-spacing:0px;word-spacing:0px;fill:#ff0000;fill-opacity:1;stroke:none;stroke-width:0.26458332"
           x="-182.28391"
           y="-31.946304"
           id="text1440-7-5-4-7"><tspan
             sodipodi:role="line"
             id="tspan1438-7-1-2-8"
             x="-182.28391"
             y="-31.946304"
             style="font-style:normal;font-variant:normal;font-weight:bold;font-stretch:normal;font-size:3.52777767px;font-family:Arial;-inkscape-font-specification:'Arial Bold';fill:#ff0000;fill-opacity:1;stroke-width:0.26458332">4</tspan></text>
        <text
           xml:space="preserve"
           style="font-style:normal;font-variant:normal;font-weight:bold;font-stretch:normal;font-size:3.52777767px;line-height:1.25;font-family:Arial;-inkscape-font-specification:'Arial Bold';letter-spacing:0px;word-spacing:0px;fill:#ff0000;fill-opacity:1;stroke:none;stroke-width:0.26458332"
           x="-146.46153"
           y="-67.949883"
           id="text1440-7-5-4-6"><tspan
             sodipodi:role="line"
             id="tspan1438-7-1-2-7"
             x="-146.46153"
             y="-67.949883"
             style="font-style:normal;font-variant:normal;font-weight:bold;font-stretch:normal;font-size:3.52777767px;font-family:Arial;-inkscape-font-specification:'Arial Bold';fill:#ff0000;fill-opacity:1;stroke-width:0.26458332">4</tspan></text>
      </g>
      <g
         transform="translate(48.108514,10.423511)"
         id="g2082">
        <path
           inkscape:connector-curvature="0"
           style="fill:none;fill-opacity:1;stroke:#000000;stroke-width:1.88976383;stroke-linejoin:bevel;stroke-miterlimit:4;stroke-dasharray:none;stroke-dashoffset:0;stroke-opacity:0.99607843"
           d="m 325.86328,624.87891 v 11.33789 h -184.4414 v 67.08593 h 11.33789 v 134.17383 h -11.33789 v 67.08594 h 184.4414 v 11.33789 H 694.74414 V 904.5625 H 879.18555 V 636.2168 H 694.74414 v -11.33789 z m 534.42383,30.23632 c 4.18772,0 7.56055,3.37088 7.56055,7.5586 0,4.18771 -3.37283,7.55859 -7.56055,7.55859 -4.18772,0 -7.55859,-3.37088 -7.55859,-7.55859 0,-4.18772 3.37087,-7.5586 7.55859,-7.5586 z m -332.97266,48.1875 h 11.33789 v 134.17383 h -11.33789 z m 332.97266,167.24415 c 4.18772,-10e-6 7.56055,3.37275 7.56055,7.56054 0,4.18772 -3.37283,7.5586 -7.56055,7.5586 -4.18772,0 -7.55859,-3.37088 -7.55859,-7.5586 0,-4.18779 3.37087,-7.56057 7.55859,-7.56054 z"
           transform="matrix(0.26458333,0,0,0.26458333,-147.40626,-237.0461)"
           id="path1506" />
        <text
           xml:space="preserve"
           style="font-style:normal;font-variant:normal;font-weight:bold;font-stretch:normal;font-size:3.52777767px;line-height:1.25;font-family:Arial;-inkscape-font-specification:'Arial Bold';letter-spacing:0px;word-spacing:0px;fill:#ff0000;fill-opacity:1;stroke:none;stroke-width:0.26458332"
           x="-13.222116"
           y="2.0730777"
           id="text1440"><tspan
             sodipodi:role="line"
             id="tspan1438"
             x="-13.222116"
             y="2.0730777"
             style="font-style:normal;font-variant:normal;font-weight:bold;font-stretch:normal;font-size:3.52777767px;font-family:Arial;-inkscape-font-specification:'Arial Bold';fill:#ff0000;fill-opacity:1;stroke-width:0.26458332">1</tspan></text>
        <text
           xml:space="preserve"
           style="font-style:normal;font-variant:normal;font-weight:bold;font-stretch:normal;font-size:3.52777767px;line-height:1.25;font-family:Arial;-inkscape-font-specification:'Arial Bold';letter-spacing:0px;word-spacing:0px;fill:#ff0000;fill-opacity:1;stroke:none;stroke-width:0.26458332"
           x="-13.324609"
           y="-63.263725"
           id="text1440-7"><tspan
             sodipodi:role="line"
             id="tspan1438-7"
             x="-13.324609"
             y="-63.263725"
             style="font-style:normal;font-variant:normal;font-weight:bold;font-stretch:normal;font-size:3.52777767px;font-family:Arial;-inkscape-font-specification:'Arial Bold';fill:#ff0000;fill-opacity:1;stroke-width:0.26458332">2</tspan></text>
        <text
           xml:space="preserve"
           style="font-style:normal;font-variant:normal;font-weight:bold;font-stretch:normal;font-size:3.52777767px;line-height:1.25;font-family:Arial;-inkscape-font-specification:'Arial Bold';letter-spacing:0px;word-spacing:0px;fill:#ff0000;fill-opacity:1;stroke:none;stroke-width:0.26458332"
           x="-106.11158"
           y="-31.967836"
           id="text1440-7-5-1"><tspan
             sodipodi:role="line"
             id="tspan1438-7-1-9"
             x="-106.11158"
             y="-31.967836"
             style="font-style:normal;font-variant:normal;font-weight:bold;font-stretch:normal;font-size:3.52777767px;font-family:Arial;-inkscape-font-specification:'Arial Bold';fill:#ff0000;fill-opacity:1;stroke-width:0.26458332">3</tspan></text>
        <text
           xml:space="preserve"
           style="font-style:normal;font-variant:normal;font-weight:bold;font-stretch:normal;font-size:3.52777767px;line-height:1.25;font-family:Arial;-inkscape-font-specification:'Arial Bold';letter-spacing:0px;word-spacing:0px;fill:#ff0000;fill-opacity:1;stroke:none;stroke-width:0.26458332"
           x="-11.537505"
           y="-31.946047"
           id="text1440-7-5-4-3"><tspan
             sodipodi:role="line"
             id="tspan1438-7-1-2-0"
             x="-11.537505"
             y="-31.946047"
             style="font-style:normal;font-variant:normal;font-weight:bold;font-stretch:normal;font-size:3.52777767px;font-family:Arial;-inkscape-font-specification:'Arial Bold';fill:#ff0000;fill-opacity:1;stroke-width:0.26458332">4</tspan></text>
      </g>
      <g
         transform="translate(243.30848,13.423356)"
         id="g2071">
        <path
           style="fill:none;fill-opacity:1;stroke:#000000;stroke-width:0.5;stroke-linejoin:bevel;stroke-miterlimit:4;stroke-dasharray:none;stroke-dashoffset:0;stroke-opacity:0.99607843"
           d="m -109.98839,2.2860581 v 19.2499879 1.49965 h 2.99982 v 35.50017 h -2.99982 v 1.500161 19.249971 h 48.800119 v -2.999819 h 97.599726 v 2.999819 H 118.61161 V 2.2860581 H 36.411455 V 5.2858748 H -61.188271 V 2.2860581 Z M -7.8876498,23.035696 h 2.9998167 v 35.50017 H -7.8876498 Z M -30.013431,63.385678 c 1.75895,0 3.175,1.41605 3.175,3.175 0,1.75895 -1.41605,3.175 -3.175,3.175 -1.75895,0 -3.175,-1.41605 -3.175,-3.175 0,-1.75895 1.41605,-3.175 3.175,-3.175 z m 59.999956,0 c 1.75895,0 3.175,1.41605 3.175,3.175 0,1.75895 -1.41605,3.175 -3.175,3.175 -1.75895,0 -3.175,-1.41605 -3.175,-3.175 0,-1.75895 1.41605,-3.175 3.175,-3.175 z"
           id="rect818"
           inkscape:connector-curvature="0" />
        <text
           xml:space="preserve"
           style="font-style:normal;font-variant:normal;font-weight:bold;font-stretch:normal;font-size:3.52777767px;line-height:1.25;font-family:Arial;-inkscape-font-specification:'Arial Bold';letter-spacing:0px;word-spacing:0px;fill:#ff0000;fill-opacity:1;stroke:none;stroke-width:0.26458332"
           x="-13.222116"
           y="10.547727"
           id="text1440-0"><tspan
             sodipodi:role="line"
             id="tspan1438-9"
             x="-13.222116"
             y="10.547727"
             style="font-style:normal;font-variant:normal;font-weight:bold;font-stretch:normal;font-size:3.52777767px;font-family:Arial;-inkscape-font-specification:'Arial Bold';fill:#ff0000;fill-opacity:1;stroke-width:0.26458332">1</tspan></text>
        <text
           xml:space="preserve"
           style="font-style:normal;font-variant:normal;font-weight:bold;font-stretch:normal;font-size:3.52777767px;line-height:1.25;font-family:Arial;-inkscape-font-specification:'Arial Bold';letter-spacing:0px;word-spacing:0px;fill:#ff0000;fill-opacity:1;stroke:none;stroke-width:0.26458332"
           x="-13.222116"
           y="73.043732"
           id="text1440-6"><tspan
             sodipodi:role="line"
             id="tspan1438-8"
             x="-13.222116"
             y="73.043732"
             style="font-style:normal;font-variant:normal;font-weight:bold;font-stretch:normal;font-size:3.52777767px;font-family:Arial;-inkscape-font-specification:'Arial Bold';fill:#ff0000;fill-opacity:1;stroke-width:0.26458332">1</tspan></text>
        <text
           xml:space="preserve"
           style="font-style:normal;font-variant:normal;font-weight:bold;font-stretch:normal;font-size:3.52777767px;line-height:1.25;font-family:Arial;-inkscape-font-specification:'Arial Bold';letter-spacing:0px;word-spacing:0px;fill:#ff0000;fill-opacity:1;stroke:none;stroke-width:0.26458332"
           x="-106.11158"
           y="42.032291"
           id="text1440-7-5-5"><tspan
             sodipodi:role="line"
             id="tspan1438-7-1-40"
             x="-106.11158"
             y="42.032291"
             style="font-style:normal;font-variant:normal;font-weight:bold;font-stretch:normal;font-size:3.52777767px;font-family:Arial;-inkscape-font-specification:'Arial Bold';fill:#ff0000;fill-opacity:1;stroke-width:0.26458332">3</tspan></text>
        <text
           xml:space="preserve"
           style="font-style:normal;font-variant:normal;font-weight:bold;font-stretch:normal;font-size:3.52777767px;line-height:1.25;font-family:Arial;-inkscape-font-specification:'Arial Bold';letter-spacing:0px;word-spacing:0px;fill:#ff0000;fill-opacity:1;stroke:none;stroke-width:0.26458332"
           x="-11.537505"
           y="42.053822"
           id="text1440-7-5-4-98"><tspan
             sodipodi:role="line"
             id="tspan1438-7-1-2-79"
             x="-11.537505"
             y="42.053822"
             style="font-style:normal;font-variant:normal;font-weight:bold;font-stretch:normal;font-size:3.52777767px;font-family:Arial;-inkscape-font-specification:'Arial Bold';fill:#ff0000;fill-opacity:1;stroke-width:0.26458332">4</tspan></text>
      </g>
      <g
         transform="translate(251.32657,-119.93644)"
         id="g2115">
        <path
           style="fill:none;fill-opacity:1;stroke:#000000;stroke-width:0.5;stroke-linejoin:bevel;stroke-miterlimit:4;stroke-dasharray:none;stroke-dashoffset:0;stroke-opacity:0.99607843"
           d="m -69.206357,58.646391 v 2.99982 h -48.800123 v 17.74984 h 2.99981 V 114.8962 h -2.99981 v 17.74981 h 48.800123 v 2.99982 h 97.599726 v -2.99982 H 77.193492 V 61.646211 H 28.393369 v -2.99982 z m 141.399637,8.00005 c 1.108,0 2.000395,0.89188 2.000395,1.99988 0,1.108 -0.892395,1.99988 -2.000395,1.99988 -1.108001,0 -1.999877,-0.89188 -1.999877,-1.99988 0,-1.108 0.891876,-1.99988 1.999877,-1.99988 z m -88.099015,12.74961 h 2.999817 V 114.8962 h -2.999817 z M 72.19328,123.64605 c 1.108,0 2.000395,0.89239 2.000395,2.00041 0,1.108 -0.892395,1.99988 -2.000395,1.99988 -1.108001,0 -1.999877,-0.89188 -1.999877,-1.99988 0,-1.10802 0.891876,-2.00041 1.999877,-2.00041 z"
           id="rect878"
           inkscape:connector-curvature="0" />
        <text
           xml:space="preserve"
           style="font-style:normal;font-variant:normal;font-weight:bold;font-stretch:normal;font-size:3.52777767px;line-height:1.25;font-family:Arial;-inkscape-font-specification:'Arial Bold';letter-spacing:0px;word-spacing:0px;fill:#ff0000;fill-opacity:1;stroke:none;stroke-width:0.26458332"
           x="-21.240202"
           y="63.181614"
           id="text1440-8"><tspan
             sodipodi:role="line"
             id="tspan1438-6"
             x="-21.240202"
             y="63.181614"
             style="font-style:normal;font-variant:normal;font-weight:bold;font-stretch:normal;font-size:3.52777767px;font-family:Arial;-inkscape-font-specification:'Arial Bold';fill:#ff0000;fill-opacity:1;stroke-width:0.26458332">1</tspan></text>
        <text
           xml:space="preserve"
           style="font-style:normal;font-variant:normal;font-weight:bold;font-stretch:normal;font-size:3.52777767px;line-height:1.25;font-family:Arial;-inkscape-font-specification:'Arial Bold';letter-spacing:0px;word-spacing:0px;fill:#ff0000;fill-opacity:1;stroke:none;stroke-width:0.26458332"
           x="-21.342695"
           y="133.5609"
           id="text1440-7-8"><tspan
             sodipodi:role="line"
             id="tspan1438-7-6"
             x="-21.342695"
             y="133.5609"
             style="font-style:normal;font-variant:normal;font-weight:bold;font-stretch:normal;font-size:3.52777767px;font-family:Arial;-inkscape-font-specification:'Arial Bold';fill:#ff0000;fill-opacity:1;stroke-width:0.26458332">2</tspan></text>
        <text
           xml:space="preserve"
           style="font-style:normal;font-variant:normal;font-weight:bold;font-stretch:normal;font-size:3.52777767px;line-height:1.25;font-family:Arial;-inkscape-font-specification:'Arial Bold';letter-spacing:0px;word-spacing:0px;fill:#ff0000;fill-opacity:1;stroke:none;stroke-width:0.26458332"
           x="-114.12967"
           y="98.392403"
           id="text1440-7-5-7"><tspan
             sodipodi:role="line"
             id="tspan1438-7-1-4"
             x="-114.12967"
             y="98.392403"
             style="font-style:normal;font-variant:normal;font-weight:bold;font-stretch:normal;font-size:3.52777767px;font-family:Arial;-inkscape-font-specification:'Arial Bold';fill:#ff0000;fill-opacity:1;stroke-width:0.26458332">3</tspan></text>
        <text
           xml:space="preserve"
           style="font-style:normal;font-variant:normal;font-weight:bold;font-stretch:normal;font-size:3.52777767px;line-height:1.25;font-family:Arial;-inkscape-font-specification:'Arial Bold';letter-spacing:0px;word-spacing:0px;fill:#ff0000;fill-opacity:1;stroke:none;stroke-width:0.26458332"
           x="-19.555592"
           y="98.413918"
           id="text1440-7-5-4-2"><tspan
             sodipodi:role="line"
             id="tspan1438-7-1-2-24"
             x="-19.555592"
             y="98.413918"
             style="font-style:normal;font-variant:normal;font-weight:bold;font-stretch:normal;font-size:3.52777767px;font-family:Arial;-inkscape-font-specification:'Arial Bold';fill:#ff0000;fill-opacity:1;stroke-width:0.26458332">4</tspan></text>
      </g>
      <g
         transform="translate(48.108509,-134.57638)"
         id="g2126">
        <path
           inkscape:connector-curvature="0"
           style="fill:none;fill-opacity:1;stroke:#000000;stroke-width:1.88976383;stroke-linejoin:bevel;stroke-miterlimit:4;stroke-dasharray:none;stroke-dashoffset:0;stroke-opacity:0.99607843"
           d="m 141.42188,1463.9316 v 72.7559 5.668 h 11.33789 v 134.1738 h -11.33789 v 5.6699 72.7559 h 184.4414 v -11.3379 h 316.59375 52.28711 v 11.3379 H 879.18555 V 1463.9316 H 694.74414 v 11.3379 H 325.86328 v -11.3379 z m 385.89257,78.4239 h 11.33789 v 134.1738 h -11.33789 z m -102.04883,9.4492 c 3.66425,0 6.61133,2.951 6.61133,6.6152 0,3.6643 -2.94708,6.6133 -6.61133,6.6133 -3.66425,0 -6.61718,-2.949 -6.61718,-6.6133 1e-5,-3.6642 2.95293,-6.6152 6.61718,-6.6152 z m 170.07618,0 c 3.66426,0 6.61523,2.951 6.61523,6.6152 0,3.6643 -2.95097,6.6133 -6.61523,6.6133 -3.66424,0 -6.61328,-2.949 -6.61328,-6.6133 0,-3.6642 2.94904,-6.6152 6.61328,-6.6152 z m -170.07618,102.0488 c 3.66425,0 6.61133,2.949 6.61133,6.6133 0,3.6642 -2.94708,6.6152 -6.61133,6.6152 -3.66425,0 -6.61718,-2.951 -6.61718,-6.6152 1e-5,-3.6643 2.95293,-6.6133 6.61718,-6.6133 z m 170.07618,0 c 3.66426,0 6.61523,2.949 6.61523,6.6133 0,3.6642 -2.95097,6.6152 -6.61523,6.6152 -3.66424,0 -6.61328,-2.951 -6.61328,-6.6152 0,-3.6643 2.94904,-6.6133 6.61328,-6.6133 z"
           transform="matrix(0.26458333,0,0,0.26458333,-147.40626,-237.0461)"
           id="rect818-0" />
        <text
           xml:space="preserve"
           style="font-style:normal;font-variant:normal;font-weight:bold;font-stretch:normal;font-size:3.52777767px;line-height:1.25;font-family:Arial;-inkscape-font-specification:'Arial Bold';letter-spacing:0px;word-spacing:0px;fill:#ff0000;fill-opacity:1;stroke:none;stroke-width:0.26458332"
           x="-13.324609"
           y="158.38231"
           id="text1440-7-4"><tspan
             sodipodi:role="line"
             id="tspan1438-7-2"
             x="-13.324609"
             y="158.38231"
             style="font-style:normal;font-variant:normal;font-weight:bold;font-stretch:normal;font-size:3.52777767px;font-family:Arial;-inkscape-font-specification:'Arial Bold';fill:#ff0000;fill-opacity:1;stroke-width:0.26458332">2</tspan></text>
        <text
           xml:space="preserve"
           style="font-style:normal;font-variant:normal;font-weight:bold;font-stretch:normal;font-size:3.52777767px;line-height:1.25;font-family:Arial;-inkscape-font-specification:'Arial Bold';letter-spacing:0px;word-spacing:0px;fill:#ff0000;fill-opacity:1;stroke:none;stroke-width:0.26458332"
           x="-13.324609"
           y="221.57986"
           id="text1440-7-3"><tspan
             sodipodi:role="line"
             id="tspan1438-7-4"
             x="-13.324609"
             y="221.57986"
             style="font-style:normal;font-variant:normal;font-weight:bold;font-stretch:normal;font-size:3.52777767px;font-family:Arial;-inkscape-font-specification:'Arial Bold';fill:#ff0000;fill-opacity:1;stroke-width:0.26458332">2</tspan></text>
        <text
           xml:space="preserve"
           style="font-style:normal;font-variant:normal;font-weight:bold;font-stretch:normal;font-size:3.52777767px;line-height:1.25;font-family:Arial;-inkscape-font-specification:'Arial Bold';letter-spacing:0px;word-spacing:0px;fill:#ff0000;fill-opacity:1;stroke:none;stroke-width:0.26458332"
           x="-106.11158"
           y="190.03204"
           id="text1440-7-5"><tspan
             sodipodi:role="line"
             id="tspan1438-7-1"
             x="-106.11158"
             y="190.03204"
             style="font-style:normal;font-variant:normal;font-weight:bold;font-stretch:normal;font-size:3.52777767px;font-family:Arial;-inkscape-font-specification:'Arial Bold';fill:#ff0000;fill-opacity:1;stroke-width:0.26458332">3</tspan></text>
        <text
           xml:space="preserve"
           style="font-style:normal;font-variant:normal;font-weight:bold;font-stretch:normal;font-size:3.52777767px;line-height:1.25;font-family:Arial;-inkscape-font-specification:'Arial Bold';letter-spacing:0px;word-spacing:0px;fill:#ff0000;fill-opacity:1;stroke:none;stroke-width:0.26458332"
           x="-11.537505"
           y="190.05357"
           id="text1440-7-5-4-0"><tspan
             sodipodi:role="line"
             id="tspan1438-7-1-2-08"
             x="-11.537505"
             y="190.05357"
             style="font-style:normal;font-variant:normal;font-weight:bold;font-stretch:normal;font-size:3.52777767px;font-family:Arial;-inkscape-font-specification:'Arial Bold';fill:#ff0000;fill-opacity:1;stroke-width:0.26458332">4</tspan></text>
      </g>
    </g>
    <text
       xml:space="preserve"
       style="font-style:normal;font-variant:normal;font-weight:normal;font-stretch:normal;font-size:8.46666622px;line-height:1.25;font-family:Arial;-inkscape-font-specification:Arial;letter-spacing:0px;word-spacing:0px;fill:#ff0000;fill-opacity:1;stroke:none;stroke-width:0.26458332"
       x="3.0282524"
       y="39.185898"
       id="text2192"><tspan
         sodipodi:role="line"
         id="tspan2190"
         x="3.0282524"
         y="39.185898"
         style="fill:#ff0000;fill-opacity:1;stroke-width:0.26458332">TOP</tspan></text>
  </g>
</svg>
