<?xml version="1.0" encoding="UTF-8" standalone="no"?>
<!-- Created with Inkscape (http://www.inkscape.org/) -->

<svg
   xmlns:dc="http://purl.org/dc/elements/1.1/"
   xmlns:cc="http://creativecommons.org/ns#"
   xmlns:rdf="http://www.w3.org/1999/02/22-rdf-syntax-ns#"
   xmlns:svg="http://www.w3.org/2000/svg"
   xmlns="http://www.w3.org/2000/svg"
   xmlns:sodipodi="http://sodipodi.sourceforge.net/DTD/sodipodi-0.dtd"
   xmlns:inkscape="http://www.inkscape.org/namespaces/inkscape"
   width="186.10001mm"
   height="193.2541mm"
   viewBox="0 0 186.10001 193.2541"
   version="1.1"
   id="svg8"
   inkscape:version="0.92.4 (5da689c313, 2019-01-14)"
   sodipodi:docname="well_plate_holder_1.svg">
  <defs
     id="defs2" />
  <sodipodi:namedview
     id="base"
     pagecolor="#ffffff"
     bordercolor="#666666"
     borderopacity="1.0"
     inkscape:pageopacity="0.0"
     inkscape:pageshadow="2"
     inkscape:zoom="0.35355339"
     inkscape:cx="-711.91915"
     inkscape:cy="62.488573"
     inkscape:document-units="mm"
     inkscape:current-layer="layer1"
     showgrid="false"
     inkscape:object-paths="true"
     inkscape:snap-intersection-paths="true"
     inkscape:snap-smooth-nodes="true"
     inkscape:window-width="1600"
     inkscape:window-height="837"
     inkscape:window-x="1912"
     inkscape:window-y="80"
     inkscape:window-maximized="1"
     fit-margin-top="0"
     fit-margin-left="0"
     fit-margin-right="0"
     fit-margin-bottom="0" />
  <metadata
     id="metadata5">
    <rdf:RDF>
      <cc:Work
         rdf:about="">
        <dc:format>image/svg+xml</dc:format>
        <dc:type
           rdf:resource="http://purl.org/dc/dcmitype/StillImage" />
        <dc:title />
      </cc:Work>
    </rdf:RDF>
  </metadata>
  <g
     inkscape:label="Layer 1"
     inkscape:groupmode="layer"
     id="layer1"
     transform="translate(129.03334,8.3833414)">
    <path
       style="fill:none;fill-opacity:1;stroke:#000000;stroke-width:0.37795275;stroke-linecap:round;stroke-linejoin:round;stroke-miterlimit:4;stroke-dasharray:none;stroke-opacity:1"
       d="M -1778.4082,-49.28125 V 498.75 h 702.9922 V -49.28125 Z m 581.6016,17.578125 h 5.6699 13.2285 5.668 v 7.560547 30.2343749 7.5605471 h -24.5664 V 6.0917969 -24.142578 Z m 83.873,12.410156 c 4.1877,0 7.5606,3.37084 7.5606,7.558594 0,4.1877165 -3.3729,7.5605469 -7.5606,7.5605469 -4.1877,0 -7.5586,-3.3728304 -7.5586,-7.5605469 0,-4.187754 3.3709,-7.558594 7.5586,-7.558594 z m -535.0801,94.736328 h 442.2051 V 374.02539 h -442.2051 z m -92.9121,141.537111 c 4.1877,0 7.5586,3.37091 7.5586,7.55859 0,4.18779 -3.3709,7.56055 -7.5586,7.56055 -4.1877,0 -7.5605,-3.37276 -7.5605,-7.56055 0,-4.18768 3.3728,-7.55859 7.5605,-7.55859 z m 627.9434,236.44531 c 4.1877,0 7.5586,3.37088 7.5586,7.5586 0,4.18779 -3.3709,7.55859 -7.5586,7.55859 -4.1878,0 -7.5586,-3.3708 -7.5586,-7.55859 0,-4.18772 3.3708,-7.5586 7.5586,-7.5586 z"
       transform="scale(0.26458333)"
       id="rect6300"
       inkscape:connector-curvature="0" />
    <path
       style="fill:none;fill-opacity:1;stroke:#000000;stroke-width:0.1;stroke-linecap:round;stroke-linejoin:round;stroke-miterlimit:4;stroke-dasharray:none;stroke-opacity:1"
       d="m -325.53726,317.96108 v -21.36717 h -9.7498 -5.00021 -14.9996 v 21.36717 z m -125.00012,0 9.75031,-29.2504 V 161.21097 h 85.5002 V 281.5938 h 14.9996 5.00021 9.7498 V 131.96107 h -144.99993 v 186.00001 z m 115.06584,-7.92665 c -1.108,0 -2.0004,-0.89187 -2.0004,-1.99988 0,-1.108 0.8924,-2.00039 2.0004,-2.00039 1.10799,0 1.99988,0.89239 1.99988,2.00039 0,1.10801 -0.89189,1.99988 -1.99988,1.99988 z m -125.0735,-0.0134 c -1.108,0 -1.99988,-0.89188 -1.99988,-1.99988 0,-1.108 0.89188,-1.99988 1.99988,-1.99988 1.108,0 1.99988,0.89188 1.99988,1.99988 0,1.108 -0.89188,1.99988 -1.99988,1.99988 z m 62.55948,-166.14336 c -1.10798,0 -2.00039,-0.89189 -2.00039,-1.99988 0,-1.10802 0.89241,-1.99988 2.00039,-1.99988 1.10801,0 1.99988,0.89186 1.99988,1.99988 0,1.10799 -0.89187,1.99988 -1.99988,1.99988 z"
       id="rect6300-0"
       inkscape:connector-curvature="0" />
    <path
       style="fill:none;fill-opacity:1;stroke:#000000;stroke-width:0.1;stroke-linecap:round;stroke-linejoin:round;stroke-miterlimit:4;stroke-dasharray:none;stroke-opacity:1"
       d="m -355.28687,161.21097 h -7.49928 -15.00012 -7.50032 v 12.99972 h 7.50032 v 1.99988 14.9996 5.00021 9.99939 h 5.00021 l 1.99988,3.73621 8.00003,-3.73621 v -14.9996 -14.9996 -1.99988 h 7.49928 z m -11.75018,17.89968 v 12.0003 h -1.50017 v -1.99988 h -3.49953 v 1.99988 h -1.50017 v -12.0003 z"
       id="rect6396"
       inkscape:connector-curvature="0" />
    <path
       style="fill:none;fill-opacity:1;stroke:#000000;stroke-width:0.37795275;stroke-linecap:round;stroke-linejoin:round;stroke-miterlimit:4;stroke-dasharray:none;stroke-opacity:1"
       d="M -1665.9668,609.30078 V 1312.293 h 548.0313 V 609.30078 h -75.5899 l -36.8496,110.55274 v 481.88868 h -323.1523 V 774.78516 719.85352 703.28906 609.30078 Z m 37.5469,29.95899 c 4.1877,0 7.5605,3.37087 7.5605,7.55859 0,4.18768 -3.3728,7.56055 -7.5605,7.56055 -4.1878,0 -7.5586,-3.37287 -7.5586,-7.56055 0,-4.18772 3.3708,-7.55859 7.5586,-7.55859 z m 472.7187,0.0508 c 4.1877,0 7.5586,3.37091 7.5586,7.55859 0,4.18772 -3.3709,7.55859 -7.5586,7.55859 -4.1877,0 -7.5586,-3.37087 -7.5586,-7.55859 0,-4.18768 3.3709,-7.55859 7.5586,-7.55859 z m -492.6875,66.81445 h 7.5606 30.2343 7.5606 v 24.56641 h -7.5606 -30.2343 -7.5606 v -5.66993 h 7.5586 v -13.22851 h -7.5586 z m 256.2422,561.12888 c 4.1877,0 7.5606,3.3708 7.5606,7.5586 0,4.1877 -3.3729,7.5586 -7.5606,7.5586 -4.1877,0 -7.5586,-3.3709 -7.5586,-7.5586 0,-4.1878 3.3709,-7.5586 7.5586,-7.5586 z"
       transform="scale(0.26458333)"
       id="rect6300-0-6"
       inkscape:connector-curvature="0" />
    <path
       style="fill:none;fill-opacity:1;stroke:#000000;stroke-width:0.1;stroke-linecap:round;stroke-linejoin:round;stroke-miterlimit:4;stroke-dasharray:none;stroke-opacity:1"
       d="m -400.7859,222.94569 h 7.49928 15.00012 7.50032 v -12.99971 h -7.50032 v -1.99989 -14.9996 -5.0002 -9.99939 h -5.00021 l -1.99988,-3.73621 -8.00003,3.73621 v 14.9996 14.9996 1.99988 h -7.49928 z m 11.75018,-17.89968 v -12.00029 h 1.50017 v 1.99988 h 3.49953 v -1.99988 h 1.50017 v 12.0003 z"
       id="rect6396-3"
       inkscape:connector-curvature="0" />
  </g>
</svg>
